# Blender v2.75 (sub 0) OBJ File: 'triangle_rounded.blend'
# www.blender.org
mtllib triangle_rounded.mtl
o Cube
v 0.149384 0.072877 -0.108620
v 0.095680 0.044838 -0.088024
v 0.112011 0.079009 -0.125051
v 0.149384 0.072877 0.108620
v 0.112011 0.079009 0.125051
v 0.095680 0.044838 0.088024
v -0.112011 0.079009 0.125051
v -0.149384 0.072877 0.108620
v -0.095680 0.044838 0.088024
v -0.112011 0.079009 -0.125051
v -0.095680 0.044838 -0.088024
v -0.149384 0.072877 -0.108620
v 0.807451 1.259790 -0.260063
v 0.793987 1.293961 -0.225891
v 0.843973 1.263670 -0.225891
v 0.861902 1.155499 -0.260063
v 0.885961 1.183249 -0.225891
v 0.882245 1.124919 -0.225891
v 0.861901 1.155499 0.260063
v 0.882244 1.124919 0.225892
v 0.885961 1.183249 0.225892
v 0.793986 1.293961 0.225892
v 0.807450 1.259790 0.260063
v 0.843972 1.263670 0.225892
v -0.807451 1.259790 0.260063
v -0.793987 1.293961 0.225892
v -0.843973 1.263670 0.225892
v -0.861902 1.155499 0.260063
v -0.885961 1.183249 0.225892
v -0.882245 1.124919 0.225892
v -0.861901 1.155499 -0.260063
v -0.882244 1.124919 -0.225892
v -0.885961 1.183249 -0.225892
v -0.793986 1.293961 -0.225891
v -0.807450 1.259790 -0.260063
v -0.843973 1.263670 -0.225892
vn 0.000000 -0.106900 -0.994300
vn -0.820500 -0.571600 -0.000000
vn -0.886500 0.462800 -0.000000
vn 0.886500 0.462800 0.000000
vn -0.000000 -0.106900 0.994300
vn 0.000000 1.000000 0.000000
vn 0.820500 -0.571600 0.000000
vn 0.153600 -0.759000 -0.632700
vn 0.153600 -0.759000 0.632700
vn -0.153600 -0.759000 0.632700
vn -0.153600 -0.759000 -0.632700
vn 0.434300 0.716700 -0.545600
vn 0.836400 -0.053300 -0.545600
vn 0.836400 -0.053300 0.545600
vn 0.434300 0.716700 0.545600
vn -0.434300 0.716700 0.545600
vn -0.836400 -0.053300 0.545600
vn -0.836400 -0.053300 -0.545600
vn -0.434300 0.716700 -0.545600
vn 0.462800 -0.886500 0.000000
vn 0.000000 -0.734900 -0.678200
vn -0.000000 -0.734900 0.678200
vn -0.462800 -0.886500 -0.000000
vn 0.626800 0.327300 -0.707100
vn 0.518300 0.855200 0.000000
vn 0.626800 0.327300 0.707100
vn 0.998000 -0.063600 0.000000
vn -0.626800 0.327300 0.707100
vn -0.518300 0.855200 -0.000000
vn -0.626800 0.327300 -0.707100
vn -0.998000 -0.063600 -0.000000
vn 0.000000 0.707100 -0.707100
vn 0.444100 -0.404100 -0.799700
vn -0.444100 -0.404100 -0.799700
vn 0.444100 -0.404100 0.799700
vn -0.000000 0.707100 0.707100
vn -0.444100 -0.404100 0.799700
vn 0.000000 -1.000000 -0.000000
usemtl Material
s off
f 13//1 16//1 3//1 10//1 31//1 35//1
f 8//2 30//2 32//2 12//2
f 27//3 36//3 33//3 29//3
f 15//4 24//4 21//4 17//4
f 5//5 19//5 23//5 25//5 28//5 7//5
f 14//6 34//6 26//6 22//6
f 1//7 18//7 20//7 4//7
f 1//8 2//8 3//8
f 4//9 5//9 6//9
f 7//10 8//10 9//10
f 10//11 11//11 12//11
f 13//12 14//12 15//12
f 16//13 17//13 18//13
f 19//14 20//14 21//14
f 22//15 23//15 24//15
f 25//16 26//16 27//16
f 28//17 29//17 30//17
f 31//18 32//18 33//18
f 34//19 35//19 36//19
f 1//20 4//20 6//20 2//20
f 2//21 11//21 10//21 3//21
f 5//22 7//22 9//22 6//22
f 8//23 12//23 11//23 9//23
f 16//24 13//24 15//24 17//24
f 14//25 22//25 24//25 15//25
f 23//26 19//26 21//26 24//26
f 20//27 18//27 17//27 21//27
f 28//28 25//28 27//28 29//28
f 26//29 34//29 36//29 27//29
f 35//30 31//30 33//30 36//30
f 32//31 30//31 29//31 33//31
f 34//32 14//32 13//32 35//32
f 18//33 1//33 3//33 16//33
f 12//34 32//34 31//34 10//34
f 19//35 5//35 4//35 20//35
f 25//36 23//36 22//36 26//36
f 30//37 8//37 7//37 28//37
f 2//38 6//38 9//38 11//38
